<mxfile host="65bd71144e">
    <diagram id="moDbS-huTAy9qD4W-EWF" name="Page-1">
        <mxGraphModel dx="806" dy="702" grid="1" gridSize="10" guides="1" tooltips="1" connect="1" arrows="1" fold="1" page="1" pageScale="1" pageWidth="827" pageHeight="1169" math="0" shadow="0">
            <root>
                <mxCell id="0"/>
                <mxCell id="1" parent="0"/>
                <mxCell id="21" value="&lt;h3&gt;&lt;font face=&quot;Helvetica&quot;&gt;&lt;span style=&quot;font-weight: normal;&quot;&gt;Hotel&lt;/span&gt; (&lt;u&gt;Hotel_id,&lt;/u&gt;&amp;nbsp;&lt;span style=&quot;font-weight: normal;&quot;&gt;Hotel_name&lt;/span&gt;, #&lt;u&gt;Type_id&lt;/u&gt;)&amp;nbsp;&lt;/font&gt;&lt;/h3&gt;&lt;div&gt;&lt;font face=&quot;Helvetica&quot;&gt;Type (&lt;b&gt;&lt;u&gt;type_id&lt;/u&gt;&lt;/b&gt;, type_name)&lt;/font&gt;&lt;/div&gt;&lt;div&gt;&lt;h3&gt;&lt;font face=&quot;Helvetica&quot;&gt;&lt;span style=&quot;font-weight: normal;&quot;&gt;Hotel&lt;/span&gt;&amp;nbsp;(&lt;u&gt;Hotel_id,&lt;/u&gt;&amp;nbsp;&lt;span style=&quot;font-weight: normal;&quot;&gt;Hotel_name&lt;/span&gt;, #&lt;u&gt;room_id&lt;/u&gt;)&lt;/font&gt;&lt;/h3&gt;&lt;h3 style=&quot;font-family: Helvetica;&quot;&gt;&lt;span style=&quot;font-weight: normal;&quot;&gt;Room&lt;/span&gt;&amp;nbsp;(&lt;u&gt;room_id&lt;/u&gt;,&amp;nbsp;&lt;span style=&quot;font-weight: normal;&quot;&gt;floor&lt;/span&gt;)&lt;/h3&gt;&lt;/div&gt;&lt;div&gt;&lt;h3&gt;&lt;font face=&quot;Helvetica&quot;&gt;&lt;span style=&quot;font-weight: normal;&quot;&gt;Hotel&lt;/span&gt;&amp;nbsp;(&lt;u&gt;Hotel_id,&lt;/u&gt;&amp;nbsp;&lt;span style=&quot;font-weight: normal;&quot;&gt;Hotel_name&lt;/span&gt;, #&lt;u&gt;Employee_id&lt;/u&gt;)&lt;/font&gt;&lt;/h3&gt;&lt;div style=&quot;font-family: Helvetica;&quot;&gt;Employee (&lt;b&gt;&lt;u&gt;Employee_id&lt;/u&gt;&lt;/b&gt;, employee_name, employee_speciality)&lt;/div&gt;&lt;/div&gt;&lt;div style=&quot;font-family: Helvetica;&quot;&gt;&lt;br&gt;&lt;/div&gt;&lt;div style=&quot;font-family: Helvetica;&quot;&gt;&lt;br&gt;&lt;/div&gt;&lt;div style=&quot;font-family: Helvetica;&quot;&gt;Employee (&lt;u&gt;&lt;b&gt;Employee_id&lt;/b&gt;&lt;/u&gt;, employee_name, employee_speciality, #&lt;b&gt;leads_by&lt;/b&gt;)&lt;br&gt;&lt;/div&gt;&lt;div style=&quot;font-family: Helvetica;&quot;&gt;&lt;br&gt;&lt;/div&gt;&lt;div style=&quot;font-family: Helvetica;&quot;&gt;&lt;span style=&quot;background-color: initial;&quot;&gt;&lt;br&gt;&lt;/span&gt;&lt;/div&gt;&lt;div style=&quot;font-family: Helvetica;&quot;&gt;&lt;span style=&quot;background-color: initial;&quot;&gt;Room&lt;/span&gt;&lt;span style=&quot;background-color: initial;&quot;&gt;&amp;nbsp;(&lt;/span&gt;&lt;u style=&quot;background-color: initial;&quot;&gt;&lt;b&gt;room_id&lt;/b&gt;&lt;/u&gt;&lt;span style=&quot;background-color: initial;&quot;&gt;,&amp;nbsp;&lt;/span&gt;&lt;span style=&quot;background-color: initial;&quot;&gt;floor, #&lt;b&gt;Category_id&lt;/b&gt;&lt;/span&gt;&lt;span style=&quot;background-color: initial;&quot;&gt;)&lt;/span&gt;&lt;br&gt;&lt;/div&gt;&lt;div style=&quot;font-family: Helvetica;&quot;&gt;&lt;span style=&quot;background-color: initial;&quot;&gt;&lt;br&gt;&lt;/span&gt;&lt;/div&gt;&lt;div style=&quot;font-family: Helvetica;&quot;&gt;&lt;span style=&quot;background-color: initial;&quot;&gt;Category (&lt;b&gt;&lt;u&gt;Category_id&lt;/u&gt;&lt;/b&gt;, category_name, Price, Beds_numbers)&lt;/span&gt;&lt;/div&gt;&lt;div style=&quot;font-family: Helvetica;&quot;&gt;&lt;div style=&quot;font-family: &amp;quot;Architects Daughter&amp;quot;;&quot;&gt;&lt;div&gt;&lt;br&gt;&lt;/div&gt;&lt;/div&gt;&lt;div style=&quot;font-family: &amp;quot;Architects Daughter&amp;quot;;&quot;&gt;&lt;/div&gt;&lt;/div&gt;" style="text;html=1;align=left;verticalAlign=middle;resizable=0;points=[];autosize=1;strokeColor=none;fillColor=none;fontSize=20;fontFamily=Architects Daughter;sketch=1;hachureGap=4;jiggle=2;curveFitting=1;fontSource=https%3A%2F%2Ffonts.googleapis.com%2Fcss%3Ffamily%3DArchitects%2BDaughter;" vertex="1" parent="1">
                    <mxGeometry y="45" width="710" height="540" as="geometry"/>
                </mxCell>
                <mxCell id="22" value="Relational Model" style="text;html=1;align=center;verticalAlign=middle;resizable=0;points=[];autosize=1;strokeColor=none;fillColor=none;fontSize=20;fontFamily=Helvetica;sketch=1;hachureGap=4;jiggle=2;curveFitting=1;fontSource=https%3A%2F%2Ffonts.googleapis.com%2Fcss%3Ffamily%3DArchitects%2BDaughter;" vertex="1" parent="1">
                    <mxGeometry x="329" y="10" width="170" height="40" as="geometry"/>
                </mxCell>
                <mxCell id="23" value="&lt;h3 style=&quot;border-color: rgb(0, 0, 0); color: rgb(240, 240, 240); font-family: &amp;quot;Architects Daughter&amp;quot;; font-style: normal; font-variant-ligatures: normal; font-variant-caps: normal; letter-spacing: normal; orphans: 2; text-indent: 0px; text-transform: none; widows: 2; word-spacing: 0px; -webkit-text-stroke-width: 0px; background-color: rgb(42, 37, 47); text-decoration-thickness: initial; text-decoration-style: initial; text-decoration-color: initial;&quot;&gt;&lt;br&gt;&lt;/h3&gt;" style="text;html=1;align=left;verticalAlign=middle;resizable=0;points=[];autosize=1;strokeColor=none;fillColor=none;fontSize=20;fontFamily=Helvetica;sketch=1;hachureGap=4;jiggle=2;curveFitting=1;fontSource=https%3A%2F%2Ffonts.googleapis.com%2Fcss%3Ffamily%3DArchitects%2BDaughter;" vertex="1" parent="1">
                    <mxGeometry y="225" width="20" height="90" as="geometry"/>
                </mxCell>
                <mxCell id="25" value="&lt;h3 style=&quot;font-family: &amp;quot;Architects Daughter&amp;quot;;&quot;&gt;&lt;br&gt;&lt;/h3&gt;" style="text;html=1;align=left;verticalAlign=middle;resizable=0;points=[];autosize=1;strokeColor=none;fillColor=none;fontSize=20;fontFamily=Helvetica;sketch=1;hachureGap=4;jiggle=2;curveFitting=1;fontSource=https%3A%2F%2Ffonts.googleapis.com%2Fcss%3Ffamily%3DArchitects%2BDaughter;" vertex="1" parent="1">
                    <mxGeometry y="370" width="20" height="90" as="geometry"/>
                </mxCell>
            </root>
        </mxGraphModel>
    </diagram>
</mxfile>